Coordinates
version=1
nRows=11
nColumns=40
inDegrees=yes

Units are S.I. units (second, meters, Newtons, ...)
Angles are in degrees.

endheader
time	pelvis_tilt	pelvis_list	pelvis_rotation	pelvis_tx	pelvis_ty	pelvis_tz	hip_flexion_r	hip_adduction_r	hip_rotation_r	knee_angle_r	knee_angle_r_beta	ankle_angle_r	subtalar_angle_r	mtp_angle_r	hip_flexion_l	hip_adduction_l	hip_rotation_l	knee_angle_l	knee_angle_l_beta	ankle_angle_l	subtalar_angle_l	mtp_angle_l	lumbar_extension	lumbar_bending	lumbar_rotation	arm_flex_r	arm_add_r	arm_rot_r	elbow_flex_r	pro_sup_r	wrist_flex_r	wrist_dev_r	arm_flex_l	arm_add_l	arm_rot_l	elbow_flex_l	pro_sup_l	wrist_flex_l	wrist_dev_l
      1.30142857	     -6.90272424	     -5.42362904	     -6.30607466	      1.05916660	      0.93258075	      0.42076041	     38.48529509	     -4.01596379	     -4.79438570	     59.95928560	     59.95928560	     -1.24012172	    -14.24344650	      0.25397742	     14.57467606	     -6.65286780	     -5.81893978	     20.69255703	     20.69255703	     13.96427053	    -13.65173624	      2.15526302	    -12.83780223	      4.92163714	      2.83005377	     10.91389852	    -14.96532843	      0.35271923	     38.48834921	     46.67157831	      0.00000000	      0.00000000	     10.27772149	    -16.92763264	    -12.75047324	     73.65673148	     47.88300920	      0.00000000	      0.00000000
      1.31285714	     -6.89711899	     -5.39918799	     -6.62447395	      1.05821576	      0.93271581	      0.42091523	     38.89075725	     -3.85120103	     -5.02233928	     56.97143120	     56.97143120	     -1.06836020	    -12.94957138	      0.18515324	     13.67436383	     -6.60239434	     -6.22853430	     20.09318456	     20.09318456	     14.25795982	    -13.39406780	      1.99962220	    -13.02895575	      5.02746262	      3.20859607	      9.08851186	    -15.84256045	      0.14581201	     36.53231916	     46.73177265	      0.00000000	      0.00000000	     11.46696087	    -17.06567098	    -13.21568953	     75.67131261	     47.95807252	      0.00000000	      0.00000000
      1.32428571	     -6.91553773	     -5.37143282	     -6.89303576	      1.05740403	      0.93269371	      0.42111012	     39.09098195	     -3.68165909	     -5.32642351	     53.59253584	     53.59253584	     -0.87541899	    -11.53650291	      0.05809670	     12.81455907	     -6.54838800	     -6.63311473	     19.51770204	     19.51770204	     14.53547736	    -13.05937532	      1.71996853	    -13.16239085	      5.16342807	      3.41489256	      7.46759691	    -16.54123034	     -0.17715515	     34.42332292	     46.80936509	      0.00000000	      0.00000000	     12.38382979	    -17.33749304	    -13.50064686	     77.97271488	     48.02469563	      0.00000000	      0.00000000
      1.33571429	     -6.99753779	     -5.30850237	     -7.12442772	      1.05665609	      0.93234744	      0.42151812	     39.14861358	     -3.47954416	     -5.63267369	     49.82988224	     49.82988224	     -1.12482186	    -10.40105200	     -1.27288431	     12.05322107	     -6.49610059	     -7.12387251	     18.96433100	     18.96433100	     14.50477082	    -12.72104036	      0.55297658	    -13.20883811	      5.15694393	      2.55076555	      7.55252287	    -16.28634686	     -2.06293875	     29.61961790	     47.06541205	      0.00000000	      0.00000000	     11.88707824	    -18.43136361	    -14.18602042	     82.08519922	     48.15763752	      0.00000000	      0.00000000
      1.34714286	     -7.07526091	     -5.19613872	     -7.32577671	      1.05609797	      0.93192568	      0.42190697	     38.98945062	     -3.32577198	     -6.01884641	     45.78142360	     45.78142360	     -1.08361356	     -8.89149942	     -1.92779322	     11.24454733	     -6.35075443	     -7.50101971	     18.34233396	     18.34233396	     14.65789638	    -12.36685462	     -0.06069893	    -13.23236419	      5.15914507	      2.49886403	      6.26352203	    -16.62014349	     -3.56988070	     27.37323545	     47.19599427	      0.00000000	      0.00000000	     12.54344238	    -18.59089688	    -15.06802933	     84.60954217	     48.27986179	      0.00000000	      0.00000000
      1.35857143	     -7.12439769	     -5.04517263	     -7.47233329	      1.05576285	      0.93145355	      0.42238696	     38.59907132	     -3.20913623	     -6.52500346	     41.52631086	     41.52631086	     -0.72597493	     -7.06278502	     -1.71872837	     10.40523399	     -6.15927948	     -7.90714626	     17.72908321	     17.72908321	     14.92681978	    -11.91015100	     -0.30296189	    -13.24847916	      5.13268289	      2.59678159	      4.46107089	    -17.16973077	     -3.94030714	     26.27450983	     47.24013578	      0.00000000	      0.00000000	     13.47067441	    -18.84163457	    -15.32311056	     86.58354727	     48.34015903	      0.00000000	      0.00000000
      1.37000000	     -7.16777918	     -4.87091504	     -7.59231234	      1.05569697	      0.93076371	      0.42301186	     37.99576654	     -3.06819163	     -7.10884515	     37.09527063	     37.09527063	     -0.37024021	     -5.12905382	     -1.37647924	      9.54534771	     -5.95703036	     -8.35211582	     17.11396644	     17.11396644	     15.20720299	    -11.29869162	     -0.76021429	    -13.23135212	      5.03123225	      2.62612646	      2.69583867	    -17.58451675	     -4.43638939	     25.30953432	     47.28927677	      0.00000000	      0.00000000	     14.16482372	    -19.15822390	    -15.48895373	     88.98885125	     48.40269532	      0.00000000	      0.00000000
      1.38142857	     -7.25592203	     -4.70595596	     -7.62237871	      1.05585861	      0.92987642	      0.42368355	     37.21487097	     -2.85482556	     -7.73936124	     32.50274618	     32.50274618	     -0.08614843	     -3.34619655	     -0.67524515	      8.75570742	     -5.75857269	     -8.66572571	     16.53848463	     16.53848463	     15.50264921	    -10.75820719	     -1.13325031	    -13.09162913	      5.00319123	      2.45258420	      0.97277631	    -17.94159144	     -4.74670833	     24.60439587	     47.32025222	      0.00000000	      0.00000000	     14.78119328	    -19.50555072	    -15.67790935	     90.79570441	     48.45274952	      0.00000000	      0.00000000
      1.39285714	     -7.18114614	     -4.42737689	     -7.62430641	      1.05646417	      0.92890131	      0.42449461	     36.17305992	     -2.76877943	     -8.48314638	     28.08868847	     28.08868847	      0.36403312	     -1.19742200	      0.27956304	      7.70968418	     -5.42417973	     -9.11876029	     15.84069034	     15.84069034	     15.79229208	     -9.98163862	     -1.68851416	    -13.08460366	      4.76598981	      2.42081653	     -0.85526622	    -18.21914744	     -5.15732999	     23.99944420	     47.35358644	      0.00000000	      0.00000000	     15.36127708	    -19.73455838	    -15.77982161	     93.21771409	     48.51489170	      0.00000000	      0.00000000
      1.40428571	     -7.08586530	     -4.01279729	     -7.60677075	      1.05737270	      0.92760221	      0.42543032	     35.18741631	     -2.84320031	     -9.37869061	     24.19255959	     24.19255959	      1.10821335	      1.30514802	      2.16047249	      6.61453851	     -4.97327551	     -9.79586980	     15.09190653	     15.09190653	     16.00129304	     -8.87652710	     -2.70481477	    -13.06745069	      4.32431734	      2.29563719	     -2.78827479	    -18.30170384	     -5.96812334	     23.93637443	     47.38463970	      0.00000000	      0.00000000	     15.71110153	    -20.14025759	    -15.83724773	     96.25534732	     48.59058426	      0.00000000	      0.00000000
      1.41571429	     -7.05500773	     -3.72681224	     -7.48363588	      1.05850910	      0.92613080	      0.42649359	     34.07996108	     -2.66628897	    -10.07529495	     20.37688423	     20.37688423	      1.39389633	      2.94017043	      3.73152643	      5.63988914	     -4.62888516	    -10.03064078	     14.46910876	     14.46910876	     16.33154368	     -8.23025595	     -3.19053098	    -12.83361458	      4.11245668	      2.05868951	     -4.55129678	    -18.41662367	     -6.29922763	     23.64985515	     47.39732049	      0.00000000	      0.00000000	     16.20255989	    -20.35897474	    -15.93901863	     97.88028583	     48.63589606	      0.00000000	      0.00000000
